<svg xmlns="http://www.w3.org/2000/svg" version="1.1" xmlns:xlink="http://www.w3.org/1999/xlink" xmlns:svgjs="http://svgjs.dev/svgjs" width="1000" height="227" viewBox="0 0 1000 227"><g transform="matrix(1,0,0,1,0.16994382022460286,-0.1354300844978269)"><svg viewBox="0 0 356 81" data-background-color="#0a1627" preserveAspectRatio="xMidYMid meet" height="227" width="1000" xmlns="http://www.w3.org/2000/svg" xmlns:xlink="http://www.w3.org/1999/xlink"><g id="tight-bounds" transform="matrix(1,0,0,1,-0.06049999999996203,0.04832527244195717)"><svg viewBox="0 0 356.12052 80.90334945511611" height="80.90334945511611" width="356.12052"><g><svg viewBox="0 0 356.12052 80.90334945511611" height="80.90334945511611" width="356.12052"><g><svg viewBox="0 0 356.12052 80.90334945511611" height="80.90334945511611" width="356.12052"><g><path d="M0 80.903v-80.903h356.121v80.903z" fill="#fe0039" stroke="transparent" stroke-width="0" rx="0%" data-fill-palette-color="tertiary"></path><path d="M3.283 77.62v-74.337h349.554v74.337z" fill="#0a1627" stroke="transparent" stroke-width="0" rx="0%" data-fill-palette-color="quaternary"></path><path d="M9.85 71.053v-61.203h336.421v61.203z" fill="#fe0039" stroke="transparent" stroke-width="0" data-fill-palette-color="tertiary"></path></g><g transform="matrix(1,0,0,1,19.69974,19.69974)" id="textblocktransform"><svg viewBox="0 0 316.72104 41.50386945511612" height="41.50386945511612" width="316.72104" id="textblock"><g><svg viewBox="0 0 316.72104 21.592885942593394" height="21.592885942593394" width="316.72104"><g transform="matrix(1,0,0,1,0,0)"><svg width="316.72104" viewBox="3.6600000858306885 -31.25 507.7699890136719 34.619998931884766" height="21.592885942593394" data-palette-color="#0a1627"><path d="M3.66 0L3.66-3.91 10.25-3.91 10.25-26.49 3.66-26.49 3.66-30.4 22.34-30.4 22.34-26.49 15.8-26.49 15.8-16.87 37.6-16.87 37.6-26.49 31.05-26.49 31.05-30.4 49.73-30.4 49.73-26.49 43.14-26.49 43.14-3.91 49.73-3.91 49.73 0 31.05 0 31.05-3.91 37.6-3.91 37.6-13.82 15.8-13.82 15.8-3.91 22.34-3.91 22.34 0 3.66 0ZM44.9-5.37L44.9-24.78 51.46-24.78 51.46-29.15 52.44-29.15 52.44-23.85 45.87-23.85 45.87-5.37 44.9-5.37ZM17.55-18.33L17.55-24.78 24.07-24.78 24.07-29.15 25.05-29.15 25.05-23.85 18.53-23.85 18.53-18.33 17.55-18.33ZM32.52-23.85L32.52-24.78 36.57-24.78 36.57-23.85 32.52-23.85ZM5.13-23.85L5.13-24.78 9.23-23.85 9.23-23.85 5.13-23.85ZM17.55-5.37L17.55-12.11 36.62-12.11 36.62-11.18 18.53-11.18 18.53-5.37 17.55-5.37ZM32.52 1.71L51.49 1.71 51.49-2.54 52.42-2.54 52.42 2.64 32.52 2.64 32.52 1.71ZM5.13 1.71L24.1 1.71 24.1-2.54 25.07-2.54 25.07 2.64 5.13 2.64 5.13 1.71ZM59.03 0L59.03-3.91 65.62-3.91 65.62-26.49 59.03-26.49 59.03-30.4 95.33-30.4 95.33-20.87 89.84-20.87 89.84-26.49 71.36-26.49 71.36-16.87 83.62-16.87 83.62-13.82 71.36-13.82 71.36-3.91 89.84-3.91 89.84-9.52 95.33-9.52 95.33 0 59.03 0ZM91.31-18.24L91.31-19.17 97.09-19.17 97.09-29.17 98.07-29.17 98.07-18.24 91.31-18.24ZM73.12-18.33L73.12-24.78 88.82-24.78 88.82-23.85 74.09-23.85 74.09-18.33 73.12-18.33ZM60.5-23.85L60.5-24.78 64.6-24.78 64.6-23.85 60.5-23.85ZM73.12-5.37L73.12-12.11 85.35-12.11 85.35-15.65 86.33-15.65 86.33-11.18 74.09-11.18 74.09-5.37 73.12-5.37ZM60.5 1.71L97.09 1.71 97.09-8.15 98.07-8.15 98.07 2.64 60.5 2.64 60.5 1.71ZM106.54 0L106.54-3.91 112.91-3.91 112.91-26.49 106.17-26.49 106.17-30.4 126.17-30.4Q128.97-30.4 131.23-30.3 133.49-30.2 135.32-29.86L135.32-29.86Q137.47-29.44 138.97-28.71 140.47-27.98 141.43-26.94 142.38-25.9 142.81-24.6 143.23-23.29 143.23-21.75L143.23-21.75Q143.23-18.95 141.47-16.87 139.72-14.79 136.18-13.7L136.18-13.7Q135.74-13.55 135.26-13.44 134.79-13.33 134.3-13.21L134.3-13.21Q135.59-12.52 136.88-11.47 138.18-10.42 139.28-9.18 140.38-7.93 141.19-6.58 142.01-5.22 142.35-3.91L142.35-3.91 147.29-3.91 147.29 0 130.05 0 130.05-3.91 135.86-3.91Q135.44-5.22 134.57-6.62 133.69-8.01 132.44-9.23 131.2-10.45 129.62-11.35 128.05-12.26 126.26-12.57L126.26-12.57 118.4-12.57 118.4-3.91 124.36-3.91 124.36 0 106.54 0ZM138.03-12.77L138.03-12.77Q139.67-13.26 140.96-14.14 142.26-15.01 143.15-16.19 144.04-17.36 144.51-18.77 144.99-20.19 144.99-21.73L144.99-21.73Q144.99-22.8 144.77-23.8 144.55-24.8 144.01-25.72 143.48-26.64 142.57-27.49 141.67-28.34 140.33-29.15L140.33-29.15Q141.84-28.59 142.93-27.8 144.01-27 144.71-26.03 145.41-25.05 145.73-23.96 146.06-22.88 146.06-21.73L146.06-21.73Q146.06-20.31 145.69-18.97 145.31-17.63 144.54-16.42 143.77-15.21 142.57-14.21 141.38-13.21 139.77-12.5L139.77-12.5Q140.5-11.91 141.22-11.05 141.94-10.18 142.57-9.19 143.21-8.2 143.72-7.21 144.23-6.23 144.53-5.4L144.53-5.4 143.38-5.4Q143.01-6.35 142.46-7.41 141.91-8.47 141.22-9.47 140.52-10.47 139.72-11.34 138.91-12.21 138.03-12.77ZM118.4-16.48L127.22-16.48Q130.15-16.48 132.08-16.81 134-17.14 135.16-17.79 136.32-18.43 136.8-19.38 137.28-20.34 137.28-21.56L137.28-21.56Q137.28-23.07 136.2-24.28 135.13-25.49 132.78-26.07L132.78-26.07Q131.68-26.34 130.29-26.42 128.9-26.49 127.22-26.49L127.22-26.49 118.4-26.49 118.4-16.48ZM120.16-17.94L120.16-24.78 127.22-24.78Q129.22-24.78 130.56-24.69 131.9-24.61 132.83-24.39 133.76-24.17 134.37-23.82 134.98-23.46 135.49-22.92L135.49-22.92Q135-23.14 134.33-23.32 133.66-23.49 132.69-23.61 131.71-23.73 130.38-23.79 129.05-23.85 127.22-23.85L127.22-23.85 121.14-23.85 121.14-17.94 120.16-17.94ZM107.49-23.85L107.49-24.78 111.37-24.78 111.37-23.85 107.49-23.85ZM120.16-5.37L120.16-10.86 123.12-10.86Q125.46-10.86 127.28-10.49 129.1-10.11 129.93-9.18L129.93-9.18Q129.24-9.38 128.57-9.52 127.9-9.67 127.06-9.75 126.22-9.84 125.1-9.89 123.99-9.94 122.43-9.94L122.43-9.94 121.14-9.94 121.14-5.37 120.16-5.37ZM131.1 1.71L149.04 1.71 149.04-2.54 150.02-2.54 150.02 2.64 131.1 2.64 131.1 1.71ZM108.1 1.71L126.17 1.71 126.17-2.54 127.14-2.54 127.14 2.64 108.1 2.64 108.1 1.71ZM153.8-14.67L153.8-14.67Q153.8-18.02 155.11-21.03 156.41-24.05 158.9-26.32 161.39-28.59 165.04-29.92 168.69-31.25 173.38-31.25L173.38-31.25Q178.26-31.25 181.87-30.04 185.47-28.83 187.82-26.68 190.18-24.54 191.33-21.61 192.47-18.68 192.47-15.23L192.47-15.23Q192.47-11.89 191.19-8.98 189.91-6.08 187.47-3.92 185.03-1.76 181.45-0.51 177.87 0.73 173.31 0.73L173.31 0.73Q169.38 0.73 165.85-0.24 162.32-1.22 159.64-3.16 156.95-5.1 155.38-7.98 153.8-10.86 153.8-14.67ZM159.2-1.66L159.2-1.66Q160.44-0.76 162.02-0.01 163.59 0.73 165.41 1.28 167.23 1.83 169.23 2.14 171.23 2.44 173.31 2.44L173.31 2.44Q177.85 2.44 181.68 1.21 185.51-0.02 188.3-2.33 191.08-4.64 192.66-7.9 194.23-11.16 194.23-15.23L194.23-15.23Q194.23-17.26 193.68-19.25 193.13-21.24 192.13-23.05 191.13-24.85 189.69-26.42 188.25-27.98 186.47-29.15L186.47-29.15Q188.54-28.2 190.17-26.75 191.79-25.29 192.91-23.49 194.04-21.68 194.62-19.58 195.21-17.48 195.21-15.23L195.21-15.23Q195.21-11.01 193.66-7.57 192.11-4.13 189.24-1.7 186.37 0.73 182.33 2.05 178.29 3.37 173.31 3.37L173.31 3.37Q168.69 3.37 165.13 2.14 161.56 0.9 159.2-1.66ZM159.9-14.87L159.9-14.87Q159.9-12.08 160.91-9.91 161.91-7.74 163.68-6.24 165.45-4.74 167.85-3.96 170.26-3.17 173.09-3.17L173.09-3.17Q176.34-3.17 178.81-4.16 181.29-5.15 182.98-6.81 184.66-8.47 185.51-10.66 186.37-12.84 186.37-15.23L186.37-15.23Q186.37-17.99 185.45-20.24 184.54-22.49 182.84-24.06 181.14-25.63 178.72-26.49 176.29-27.34 173.26-27.34L173.26-27.34Q170.33-27.34 167.88-26.45 165.42-25.56 163.65-23.93 161.88-22.29 160.89-19.98 159.9-17.68 159.9-14.87ZM161.66-14.79L161.66-14.79Q161.66-17.04 162.43-19.02 163.2-21 164.69-22.46 166.18-23.93 168.33-24.78 170.48-25.63 173.26-25.63L173.26-25.63Q176.31-25.63 178.65-24.52 181-23.41 182.61-21.34L182.61-21.34Q180.31-23.22 178.03-23.96 175.75-24.71 173.26-24.71L173.26-24.71Q170.74-24.71 168.77-23.93 166.79-23.14 165.43-21.79 164.08-20.43 163.36-18.63 162.64-16.82 162.64-14.79L162.64-14.79Q162.64-13.18 163.2-11.71 163.76-10.23 164.81-8.96 165.86-7.69 167.35-6.69 168.84-5.69 170.72-5L170.72-5Q168.55-5.35 166.85-6.24 165.15-7.13 164.01-8.42 162.86-9.72 162.26-11.34 161.66-12.96 161.66-14.79ZM201.06 0L201.06-3.91 207.66-3.91 207.66-26.49 201.06-26.49 201.06-30.4 237.37-30.4 237.37-20.87 231.87-20.87 231.87-26.49 213.39-26.49 213.39-16.87 225.65-16.87 225.65-13.82 213.39-13.82 213.39-3.91 231.87-3.91 231.87-9.52 237.37-9.52 237.37 0 201.06 0ZM233.34-18.24L233.34-19.17 239.13-19.17 239.13-29.17 240.1-29.17 240.1-18.24 233.34-18.24ZM215.15-18.33L215.15-24.78 230.85-24.78 230.85-23.85 216.13-23.85 216.13-18.33 215.15-18.33ZM202.53-23.85L202.53-24.78 206.63-24.78 206.63-23.85 202.53-23.85ZM215.15-5.37L215.15-12.11 227.38-12.11 227.38-15.65 228.36-15.65 228.36-11.18 216.13-11.18 216.13-5.37 215.15-5.37ZM202.53 1.71L239.13 1.71 239.13-8.15 240.1-8.15 240.1 2.64 202.53 2.64 202.53 1.71ZM249.08 0L249.08-8.79 254.09-8.79Q257.34-5.86 261.02-4.5 264.71-3.15 268.74-3.15L268.74-3.15Q270.5-3.15 271.96-3.49 273.43-3.83 274.5-4.43 275.57-5.03 276.17-5.83 276.77-6.64 276.77-7.57L276.77-7.57Q276.77-8.64 276.09-9.55 275.4-10.45 273.9-11.18 272.4-11.91 270.04-12.45 267.69-12.99 264.37-13.33L264.37-13.33Q260.51-13.72 257.8-14.61 255.09-15.5 253.37-16.77 251.65-18.04 250.85-19.6 250.06-21.17 250.06-22.9L250.06-22.9Q250.06-24.51 250.99-26.01 251.92-27.51 253.75-28.67 255.58-29.83 258.31-30.54 261.05-31.25 264.66-31.25L264.66-31.25Q266.76-31.25 268.51-30.92 270.25-30.59 271.73-30.03 273.21-29.47 274.45-28.7 275.7-27.93 276.79-27.05L276.79-27.05 276.79-30.4 282.29-30.4 282.29-21.61 276.79-21.61Q276.06-22.83 274.89-23.88 273.72-24.93 272.19-25.7 270.67-26.46 268.86-26.9 267.05-27.34 265.08-27.34L265.08-27.34Q263-27.34 261.43-26.97 259.85-26.59 258.79-25.99 257.73-25.39 257.19-24.66 256.65-23.93 256.65-23.22L256.65-23.22Q256.65-22.31 257.13-21.5 257.6-20.68 258.81-19.98 260.02-19.29 262.1-18.74 264.17-18.19 267.37-17.8L267.37-17.8Q271.86-17.24 274.89-16.38 277.92-15.53 279.75-14.32 281.58-13.11 282.36-11.51 283.14-9.91 283.14-7.91L283.14-7.91Q283.14-6.4 282.32-4.86 281.51-3.32 279.83-2.08 278.16-0.83 275.6-0.05 273.03 0.73 269.57 0.73L269.57 0.73Q267.39 0.73 265.4 0.45 263.42 0.17 261.57-0.38 259.73-0.93 258-1.73 256.26-2.54 254.58-3.61L254.58-3.61 254.58 0 249.08 0ZM278.26-18.97L278.26-19.9 284.05-19.9 284.05-29.15 285.07-29.15 285.07-18.97 278.26-18.97ZM258.68-23.36L258.68-23.36Q258.68-23.88 259.2-24.29 259.73-24.71 260.66-25 261.58-25.29 262.84-25.46 264.1-25.63 265.56-25.63L265.56-25.63Q267.79-25.63 269.68-24.94 271.57-24.24 272.81-23.14L272.81-23.14Q272.13-23.44 271.28-23.72 270.42-24 269.48-24.23 268.54-24.46 267.55-24.6 266.56-24.73 265.61-24.73L265.61-24.73Q262.95-24.73 261.23-24.3 259.51-23.88 258.68-23.36ZM250.77-17.04L250.77-17.04Q251.6-15.97 252.71-15.11 253.82-14.26 255.4-13.6 256.97-12.94 259.08-12.45 261.19-11.96 264.03-11.65L264.03-11.65Q266.78-11.33 268.75-10.99 270.72-10.64 272.01-10.24 273.3-9.84 274-9.33 274.69-8.81 274.94-8.13L274.94-8.13Q274.23-8.54 273.44-8.87 272.64-9.2 271.4-9.51 270.15-9.81 268.27-10.11 266.39-10.4 263.54-10.74L263.54-10.74Q260.53-11.11 258.23-11.74 255.92-12.38 254.32-13.2 252.72-14.01 251.83-15 250.94-15.99 250.77-17.04ZM250.55 1.71L256.34 1.71 256.34-0.71Q259.26 0.83 262.46 1.64 265.66 2.44 269.54 2.44L269.54 2.44Q272.5 2.44 275.26 1.81 278.01 1.17 280.16-0.1 282.31-1.37 283.61-3.3 284.9-5.22 284.9-7.81L284.9-7.81Q284.9-9.38 284.57-10.66 284.24-11.94 283.26-13.23L283.26-13.23Q283.85-12.82 284.33-12.22 284.8-11.62 285.14-10.9 285.49-10.18 285.68-9.39 285.88-8.59 285.88-7.81L285.88-7.81Q285.88-5.13 284.59-3.05 283.31-0.98 281.09 0.45 278.87 1.88 275.89 2.62 272.91 3.37 269.52 3.37L269.52 3.37Q265.71 3.37 262.72 2.71 259.73 2.05 257.36 0.88L257.36 0.88 257.36 2.64 250.55 2.64 250.55 1.71ZM308.77 0L308.77-3.91 315.14-3.91 315.14-26.49 308.41-26.49 308.41-30.4 325.93-30.4Q328.52-30.4 330.56-30.35 332.6-30.3 334.15-30.22 335.7-30.15 336.85-30.03 338-29.91 338.83-29.76L338.83-29.76Q340.83-29.39 342.23-28.71 343.63-28.03 344.51-27.08 345.39-26.12 345.8-24.94 346.2-23.75 346.2-22.39L346.2-22.39Q346.2-21.41 345.78-20.4 345.37-19.38 344.5-18.47 343.63-17.55 342.33-16.8 341.02-16.04 339.26-15.58L339.26-15.58Q341.05-15.36 342.45-14.71 343.85-14.06 344.82-13.12 345.78-12.18 346.28-11.01 346.78-9.84 346.78-8.57L346.78-8.57Q346.78-7.08 346.37-5.82 345.95-4.57 345.01-3.56 344.07-2.56 342.56-1.84 341.05-1.12 338.85-0.71L338.85-0.71Q336.48-0.27 333.42-0.13 330.35 0 326.35 0L326.35 0 308.77 0ZM310.33 1.71L326.35 1.71Q330.23 1.71 333.49 1.62 336.75 1.54 339.19 1.05L339.19 1.05Q341.93 0.51 343.73-0.5 345.54-1.51 346.6-2.81 347.66-4.1 348.09-5.62 348.52-7.13 348.52-8.67L348.52-8.67Q348.52-9.74 348.2-10.78 347.88-11.82 347.22-12.72 346.56-13.62 345.54-14.37 344.51-15.11 343.1-15.6L343.1-15.6Q345.61-16.85 346.78-18.54 347.96-20.24 347.96-22.39L347.96-22.39Q347.96-24.51 346.81-26.43 345.66-28.34 343.05-29.66L343.05-29.66Q344.51-29.3 345.61-28.6 346.71-27.91 347.46-26.98 348.2-26.05 348.57-24.93 348.93-23.8 348.93-22.58L348.93-22.58Q348.93-20.36 348.03-18.71 347.13-17.07 345.12-15.65L345.12-15.65Q347.47-14.4 348.48-12.61 349.49-10.82 349.49-8.67L349.49-8.67Q349.49-6.76 348.96-5.07 348.42-3.37 347.21-1.99 346-0.61 344.09 0.4 342.17 1.42 339.39 1.95L339.39 1.95Q336.92 2.44 333.73 2.54 330.55 2.64 326.35 2.64L326.35 2.64 310.33 2.64 310.33 1.71ZM320.71-16.97L329.77-16.97Q332.77-16.97 334.74-17.26 336.7-17.55 337.87-18.18 339.05-18.8 339.52-19.74 340-20.68 340-22L340-22Q340-23.32 339.17-24.37 338.34-25.42 336.51-25.98L336.51-25.98Q335.26-26.34 333.63-26.42 331.99-26.49 329.77-26.49L329.77-26.49 320.71-26.49 320.71-16.97ZM322.47-18.43L322.47-24.78 329.77-24.78Q331.62-24.78 332.97-24.69 334.31-24.61 335.26-24.39 336.21-24.17 336.87-23.82 337.53-23.46 338.04-22.92L338.04-22.92Q337.56-23.14 336.88-23.32 336.21-23.49 335.24-23.61 334.26-23.73 332.93-23.79 331.6-23.85 329.77-23.85L329.77-23.85 323.44-23.85 323.44-18.43 322.47-18.43ZM309.87-23.8L309.87-24.78 314.12-24.78 314.12-23.8 309.87-23.8ZM320.71-3.91L330.23-3.91Q332.75-3.91 334.55-4.04 336.36-4.17 337.68-4.66L337.68-4.66Q338.51-4.98 339.06-5.42 339.61-5.86 339.92-6.38 340.24-6.91 340.36-7.52 340.49-8.13 340.49-8.79L340.49-8.79Q340.49-10.4 339.5-11.58 338.51-12.77 336.43-13.38L336.43-13.38Q335.16-13.75 333.53-13.83 331.89-13.92 329.82-13.92L329.82-13.92 320.71-13.92 320.71-3.91ZM322.47-5.37L322.47-12.21 329.77-12.21Q331.62-12.21 333.04-12.08 334.46-11.96 335.49-11.71 336.53-11.45 337.26-11.07 338-10.69 338.51-10.16L338.51-10.16Q337.87-10.45 337.15-10.66 336.43-10.86 335.43-11.01 334.43-11.16 333.06-11.22 331.7-11.28 329.77-11.28L329.77-11.28 323.44-11.28 323.44-5.37 322.47-5.37ZM352.57 0L352.57-3.91 357.84-3.91 373.91-30.4 379.18-30.4 394.95-3.91 401.3-3.91 401.3 0 382.5 0 382.5-3.91 388.41-3.91 384.87-10.13 367.75-10.13 364.31-3.91 369.95-3.91 369.95 0 352.57 0ZM381.94-29.15L383.06-29.15 397.2-5.37 396.07-5.37 381.94-29.15ZM369.46-13.18L383.11-13.18 376.2-25.32 369.46-13.18ZM372.1-14.65L376.64-22.53 377.23-21.46 373.3-14.65 372.1-14.65ZM367.05-5.37L368.71-8.42 384.65-8.42 385.09-7.5 369.44-7.5 368.29-5.37 367.05-5.37ZM383.55 1.71L403.03 1.71 403.03-2.56 404.06-2.56 404.06 2.64 383.55 2.64 383.55 1.71ZM353.64 1.71L371.71 1.71 371.71-2.56 372.69-2.56 372.69 2.64 353.64 2.64 353.64 1.71ZM408.21 0L408.21-3.91 414.31-3.91 414.31-26.49 407.72-26.49 407.72-30.4 422-30.4 443.36-8.25 443.36-26.49 436.77-26.49 436.77-30.4 455.45-30.4 455.45-26.49 448.85-26.49 448.85 0 443.61 0 419.8-25.2 419.8-3.91 426.39-3.91 426.39 0 408.21 0ZM445.07 1.71L450.61 1.71 450.61-24.78 457.2-24.78 457.2-29.17 458.18-29.17 458.18-23.85 451.59-23.85 451.59 2.64 445.07 2.64 445.07 1.71ZM425.42-29.17L426.71-29.17 442.41-13.35 442.41-11.94 425.42-29.17ZM438.23-23.85L438.23-24.78 442.34-24.78 442.34-23.85 438.23-23.85ZM409.18-23.85L409.18-24.78 413.28-23.85 413.28-23.85 409.18-23.85ZM421.56-5.37L421.56-21.88 422.54-20.8 422.54-5.37 421.56-5.37ZM409.67 1.71L428.15 1.71 428.15-2.54 429.13-2.54 429.13 2.64 409.67 2.64 409.67 1.71ZM464.53 0L464.53-3.91 471.12-3.91 471.12-26.49 464.53-26.49 464.53-30.4 483.2-30.4 483.2-26.49 476.66-26.49 476.66-13.4 496.9-26.49 490.14-26.49 490.14-30.4 507.96-30.4 507.96-26.49 502.49-26.49 487.74-16.89 502.12-3.91 508.69-3.91 508.69 0 490.38 0 490.38-3.91 494.65-3.91 483.42-14.09 476.66-9.67 476.66-3.91 483.2-3.91 483.2 0 464.53 0ZM490.55-16.65L503.05-24.78 509.72-24.78 509.72-29.15 510.69-29.15 510.69-23.85 503.37-23.85 492.21-16.58 504.49-5.37 503.05-5.37 490.55-16.65ZM478.42-15.7L478.42-24.78 484.2-24.78 484.2-29.15 485.18-29.15 485.18-23.85 479.39-23.85 479.39-16.33 478.42-15.7ZM465.99-23.85L465.99-24.78 470.09-24.78 470.09-23.85 465.99-23.85ZM478.42-5.37L478.42-8.74 483.84-12.3 484.55-11.65 479.39-8.25 479.39-5.37 478.42-5.37ZM491.43 1.71L510.4 1.71 510.4-2.54 511.43-2.54 511.43 2.64 491.43 2.64 491.43 1.71ZM465.99 1.71L484.96 1.71 484.96-2.54 485.94-2.54 485.94 2.64 465.99 2.64 465.99 1.71Z" opacity="1" transform="matrix(1,0,0,1,0,0)" fill="#0a1627" class="undefined-text-0" data-fill-palette-color="quaternary" id="text-0"></path></svg></g></svg></g><g transform="matrix(1,0,0,1,0,28.159465942593393)"><svg viewBox="0 0 316.72104 13.344403512522717" height="13.344403512522717" width="316.72104"><g transform="matrix(1,0,0,1,0,0)"><svg width="316.72104" viewBox="0.15000000596046448 -36.54999923706055 1072.7899169921875 45.19999694824219" height="13.344403512522717" data-palette-color="#0a1627"><path d="M10.85 0L10.85-13.4 0.15-34.3 6.25-34.3 13.8-18.95 14-18.95 21.5-34.3 27.2-34.3 16.55-13.4 16.55 0 10.85 0ZM53.4 0.6Q48.35 0.6 45.82-2.75 43.3-6.1 43.3-13.15L43.3-13.15Q43.3-20.2 45.82-23.55 48.35-26.9 53.4-26.9L53.4-26.9Q58.5-26.9 61.02-23.53 63.55-20.15 63.55-13.15L63.55-13.15Q63.55-6.15 61.02-2.78 58.5 0.6 53.4 0.6L53.4 0.6ZM53.4-3.95Q55.75-3.95 56.85-6 57.95-8.05 57.95-12.2L57.95-12.2 57.95-14.1Q57.95-18.25 56.85-20.3 55.75-22.35 53.4-22.35L53.4-22.35Q51.05-22.35 49.95-20.3 48.85-18.25 48.85-14.1L48.85-14.1 48.85-12.2Q48.85-8.05 49.95-6 51.05-3.95 53.4-3.95L53.4-3.95ZM92.19 0.6Q85.39 0.6 85.39-7.7L85.39-7.7 85.39-26.3 90.74-26.3 90.74-8.85Q90.74-6.35 91.62-5.3 92.49-4.25 94.24-4.25L94.24-4.25Q96.09-4.25 97.37-5.88 98.64-7.5 98.64-10.1L98.64-10.1 98.64-26.3 103.99-26.3 103.99 0 99.64 0 99.04-3.2 98.74-3.2Q97.69-1.45 96.02-0.43 94.34 0.6 92.19 0.6L92.19 0.6ZM126.69 0L126.69-26.3 131.04-26.3 131.69-22.6 131.99-22.6Q133.34-26.9 136.49-26.9L136.49-26.9Q137.84-26.9 138.79-26.5L138.79-26.5 138.79-21.25 136.94-21.25Q134.74-21.25 133.39-19.83 132.04-18.4 132.04-15.15L132.04-15.15 132.04 0 126.69 0ZM193.13 0.55Q190.08 0.55 188.76-1.35 187.43-3.25 187.43-6.15L187.43-6.15 187.43-21.75 184.93-21.75 184.93-26.3 187.43-26.3 188.33-33.65 192.78-33.65 192.78-26.3 196.48-26.3 196.48-21.75 192.78-21.75 192.78-6.2Q192.78-3.95 194.98-3.95L194.98-3.95 196.48-3.95 196.48-0.05Q195.83 0.2 194.88 0.38 193.93 0.55 193.13 0.55L193.13 0.55ZM217.13 0L217.13-26.3 221.48-26.3 222.13-22.6 222.43-22.6Q223.78-26.9 226.93-26.9L226.93-26.9Q228.28-26.9 229.23-26.5L229.23-26.5 229.23-21.25 227.38-21.25Q225.18-21.25 223.83-19.83 222.48-18.4 222.48-15.15L222.48-15.15 222.48 0 217.13 0ZM256.08 0.6Q249.28 0.6 249.28-7.7L249.28-7.7 249.28-26.3 254.63-26.3 254.63-8.85Q254.63-6.35 255.5-5.3 256.38-4.25 258.13-4.25L258.13-4.25Q259.98-4.25 261.25-5.88 262.53-7.5 262.53-10.1L262.53-10.1 262.53-26.3 267.88-26.3 267.88 0 263.53 0 262.93-3.2 262.63-3.2Q261.58-1.45 259.9-0.43 258.23 0.6 256.08 0.6L256.08 0.6ZM298.52 0.6Q294.12 0.6 291.75-1.65 289.37-3.9 289.37-7.55L289.37-7.55Q289.37-7.95 289.4-8.1 289.42-8.25 289.42-8.3L289.42-8.3 294.92-8.3 294.92-7.9Q294.92-5.85 296.02-4.85 297.12-3.85 298.72-3.85L298.72-3.85Q300.22-3.85 301.32-4.67 302.42-5.5 302.42-7.05L302.42-7.05Q302.42-8.75 301.17-9.58 299.92-10.4 297.32-11.15L297.32-11.15Q294.92-11.9 293.42-12.63 291.92-13.35 290.87-14.9 289.82-16.45 289.82-19.05L289.82-19.05Q289.82-22.8 292.32-24.85 294.82-26.9 298.82-26.9L298.82-26.9Q302.57-26.9 304.92-24.93 307.27-22.95 307.27-19.75L307.27-19.75 307.22-18.65 301.77-18.65 301.77-18.85Q301.67-22.45 298.57-22.45L298.57-22.45Q297.02-22.45 296.17-21.6 295.32-20.75 295.32-19.5L295.32-19.5Q295.32-18 296.47-17.3 297.62-16.6 300.07-15.9L300.07-15.9Q302.52-15.2 304.07-14.48 305.62-13.75 306.75-12.13 307.87-10.5 307.87-7.75L307.87-7.75Q307.87-3.4 305.35-1.4 302.82 0.6 298.52 0.6L298.52 0.6ZM335.47 0.55Q332.42 0.55 331.09-1.35 329.77-3.25 329.77-6.15L329.77-6.15 329.77-21.75 327.27-21.75 327.27-26.3 329.77-26.3 330.67-33.65 335.12-33.65 335.12-26.3 338.82-26.3 338.82-21.75 335.12-21.75 335.12-6.2Q335.12-3.95 337.32-3.95L337.32-3.95 338.82-3.95 338.82-0.05Q338.17 0.2 337.22 0.38 336.27 0.55 335.47 0.55L335.47 0.55ZM368.51 0.6Q363.46 0.6 360.91-2.75 358.36-6.1 358.36-13.15L358.36-13.15Q358.36-26.9 368.36-26.9L368.36-26.9Q373.01-26.9 375.31-23.7 377.61-20.5 377.61-13.65L377.61-13.65 377.61-11.75 363.91-11.75Q363.96-7.75 365.06-5.8 366.16-3.85 368.56-3.85L368.56-3.85Q370.26-3.85 371.29-5.28 372.31-6.7 372.31-9.2L372.31-9.2 377.61-9.2Q377.61-4.45 375.11-1.93 372.61 0.6 368.51 0.6L368.51 0.6ZM363.96-15.85L371.96-15.85Q371.96-19.05 371.06-20.75 370.16-22.45 368.36-22.45L368.36-22.45Q366.26-22.45 365.21-20.8 364.16-19.15 363.96-15.85L363.96-15.85ZM406.81 0.6Q402.81 0.6 400.64-2.8 398.46-6.2 398.46-13.2L398.46-13.2Q398.46-20.05 400.69-23.48 402.91-26.9 406.51-26.9L406.51-26.9Q408.46-26.9 410.01-26.05 411.56-25.2 412.26-23.65L412.26-23.65 412.51-23.65 412.51-36.15 417.86-36.15 417.86 0 413.51 0 412.91-3.2 412.66-3.2Q411.76-1.35 410.21-0.38 408.66 0.6 406.81 0.6L406.81 0.6ZM408.26-4.25Q410.46-4.25 411.49-6.23 412.51-8.2 412.51-12.2L412.51-12.2 412.51-13.95Q412.51-18 411.49-20.03 410.46-22.05 408.26-22.05L408.26-22.05Q406.06-22.05 405.04-20.1 404.01-18.15 404.01-14.1L404.01-14.1 404.01-12.2Q404.01-8.15 405.04-6.2 406.06-4.25 408.26-4.25L408.26-4.25ZM469.1 0L469.1-21.75 466.55-21.75 466.55-26.3 469.1-26.3 469.1-29.85Q469.1-32.7 470.45-34.63 471.8-36.55 474.95-36.55L474.95-36.55Q475.9-36.55 477.08-36.38 478.25-36.2 479-35.95L479-35.95 479-32.05 476.6-32.05Q475.55-32.05 475-31.48 474.45-30.9 474.45-29.8L474.45-29.8 474.45-26.3 479-26.3 479-21.75 474.45-21.75 474.45 0 469.1 0ZM499.05 0L499.05-26.3 504.4-26.3 504.4 0 499.05 0ZM498.95-30.75L498.95-36.15 504.4-36.15 504.4-30.75 498.95-30.75ZM527.25 0L527.25-26.3 531.6-26.3 532.15-23.1 532.45-23.1Q533.55-24.85 535.2-25.88 536.85-26.9 539-26.9L539-26.9Q545.85-26.9 545.85-18.6L545.85-18.6 545.85 0 540.5 0 540.5-17.45Q540.5-19.95 539.6-21 538.7-22.05 536.95-22.05L536.95-22.05Q535.1-22.05 533.85-20.4 532.6-18.75 532.6-16.15L532.6-16.15 532.6 0 527.25 0ZM573.44 0.6Q570.89 0.6 568.82-1.05 566.74-2.7 566.74-6.8L566.74-6.8Q566.74-11.85 570.17-13.85 573.59-15.85 579.89-15.85L579.89-15.85 579.89-18.85Q579.89-20.55 579.19-21.5 578.49-22.45 576.64-22.45L576.64-22.45Q574.84-22.45 574.02-21.5 573.19-20.55 573.19-19.2L573.19-19.2 573.19-18.5 567.94-18.5Q567.89-18.8 567.89-19.6L567.89-19.6Q567.89-23 570.29-24.95 572.69-26.9 576.64-26.9L576.64-26.9Q580.94-26.9 583.09-24.93 585.24-22.95 585.24-19.3L585.24-19.3 585.24-5.7Q585.24-4.8 585.64-4.38 586.04-3.95 586.64-3.95L586.64-3.95 587.99-3.95 587.99-0.2Q586.49 0.55 584.74 0.55L584.74 0.55Q583.04 0.55 581.87-0.38 580.69-1.3 580.24-2.85L580.24-2.85 579.99-2.85Q578.84-1.15 577.29-0.28 575.74 0.6 573.44 0.6L573.44 0.6ZM575.39-3.95Q577.49-3.95 578.69-5.6 579.89-7.25 579.89-9.95L579.89-9.95 579.89-11.75Q576.34-11.75 574.29-10.78 572.24-9.8 572.24-7.25L572.24-7.25Q572.24-3.95 575.39-3.95L575.39-3.95ZM608.34 0L608.34-26.3 612.69-26.3 613.24-23.1 613.54-23.1Q614.64-24.85 616.29-25.88 617.94-26.9 620.09-26.9L620.09-26.9Q626.94-26.9 626.94-18.6L626.94-18.6 626.94 0 621.59 0 621.59-17.45Q621.59-19.95 620.69-21 619.79-22.05 618.04-22.05L618.04-22.05Q616.19-22.05 614.94-20.4 613.69-18.75 613.69-16.15L613.69-16.15 613.69 0 608.34 0ZM658.39 0.6Q653.39 0.6 651.06-2.73 648.74-6.05 648.74-13.15L648.74-13.15Q648.74-20.2 651.09-23.55 653.44-26.9 658.24-26.9L658.24-26.9Q667.04-26.9 667.04-16.45L667.04-16.45 661.54-16.45Q661.54-19.5 660.76-20.93 659.99-22.35 658.24-22.35L658.24-22.35Q656.19-22.35 655.26-20.3 654.34-18.25 654.34-14.1L654.34-14.1 654.34-12.2Q654.34-8.05 655.29-6 656.24-3.95 658.39-3.95L658.39-3.95Q660.14-3.95 660.94-5.43 661.74-6.9 661.74-9.85L661.74-9.85 667.04-9.85Q667.04-4.8 664.81-2.1 662.59 0.6 658.39 0.6L658.39 0.6ZM688.83 0L688.83-26.3 694.18-26.3 694.18 0 688.83 0ZM688.73-30.75L688.73-36.15 694.18-36.15 694.18-30.75 688.73-30.75ZM721.93 0.6Q719.38 0.6 717.3-1.05 715.23-2.7 715.23-6.8L715.23-6.8Q715.23-11.85 718.65-13.85 722.08-15.85 728.38-15.85L728.38-15.85 728.38-18.85Q728.38-20.55 727.68-21.5 726.98-22.45 725.13-22.45L725.13-22.45Q723.33-22.45 722.5-21.5 721.68-20.55 721.68-19.2L721.68-19.2 721.68-18.5 716.43-18.5Q716.38-18.8 716.38-19.6L716.38-19.6Q716.38-23 718.78-24.95 721.18-26.9 725.13-26.9L725.13-26.9Q729.43-26.9 731.58-24.93 733.73-22.95 733.73-19.3L733.73-19.3 733.73-5.7Q733.73-4.8 734.13-4.38 734.53-3.95 735.13-3.95L735.13-3.95 736.48-3.95 736.48-0.2Q734.98 0.55 733.23 0.55L733.23 0.55Q731.53 0.55 730.35-0.38 729.18-1.3 728.73-2.85L728.73-2.85 728.48-2.85Q727.33-1.15 725.78-0.28 724.23 0.6 721.93 0.6L721.93 0.6ZM723.88-3.95Q725.98-3.95 727.18-5.6 728.38-7.25 728.38-9.95L728.38-9.95 728.38-11.75Q724.83-11.75 722.78-10.78 720.73-9.8 720.73-7.25L720.73-7.25Q720.73-3.95 723.88-3.95L723.88-3.95ZM756.63 0L756.63-36.15 761.98-36.15 761.98 0 756.63 0ZM812.82 8.65L812.82-26.3 817.17-26.3 817.72-23.1 817.97-23.1Q818.92-24.95 820.47-25.93 822.02-26.9 823.87-26.9L823.87-26.9Q827.87-26.9 830.04-23.5 832.22-20.1 832.22-13.1L832.22-13.1Q832.22-6.25 829.99-2.83 827.77 0.6 824.17 0.6L824.17 0.6Q822.17 0.6 820.62-0.23 819.07-1.05 818.42-2.55L818.42-2.55 818.17-2.55 818.17 8.65 812.82 8.65ZM822.42-4.25Q824.62-4.25 825.62-6.2 826.62-8.15 826.62-12.2L826.62-12.2 826.62-14.1Q826.62-18.15 825.62-20.1 824.62-22.05 822.42-22.05L822.42-22.05Q820.22-22.05 819.19-20.08 818.17-18.1 818.17-14.1L818.17-14.1 818.17-12.25Q818.17-8.25 819.19-6.25 820.22-4.25 822.42-4.25L822.42-4.25ZM859.01 0.6Q856.46 0.6 854.39-1.05 852.31-2.7 852.31-6.8L852.31-6.8Q852.31-11.85 855.74-13.85 859.16-15.85 865.46-15.85L865.46-15.85 865.46-18.85Q865.46-20.55 864.76-21.5 864.06-22.45 862.21-22.45L862.21-22.45Q860.41-22.45 859.59-21.5 858.76-20.55 858.76-19.2L858.76-19.2 858.76-18.5 853.51-18.5Q853.46-18.8 853.46-19.6L853.46-19.6Q853.46-23 855.86-24.95 858.26-26.9 862.21-26.9L862.21-26.9Q866.51-26.9 868.66-24.93 870.81-22.95 870.81-19.3L870.81-19.3 870.81-5.7Q870.81-4.8 871.21-4.38 871.61-3.95 872.21-3.95L872.21-3.95 873.56-3.95 873.56-0.2Q872.06 0.55 870.31 0.55L870.31 0.55Q868.61 0.55 867.44-0.38 866.26-1.3 865.81-2.85L865.81-2.85 865.56-2.85Q864.41-1.15 862.86-0.28 861.31 0.6 859.01 0.6L859.01 0.6ZM860.96-3.95Q863.06-3.95 864.26-5.6 865.46-7.25 865.46-9.95L865.46-9.95 865.46-11.75Q861.91-11.75 859.86-10.78 857.81-9.8 857.81-7.25L857.81-7.25Q857.81-3.95 860.96-3.95L860.96-3.95ZM893.91 0L893.91-26.3 898.26-26.3 898.91-22.6 899.21-22.6Q900.56-26.9 903.71-26.9L903.71-26.9Q905.06-26.9 906.01-26.5L906.01-26.5 906.01-21.25 904.16-21.25Q901.96-21.25 900.61-19.83 899.26-18.4 899.26-15.15L899.26-15.15 899.26 0 893.91 0ZM931.96 0.55Q928.91 0.55 927.58-1.35 926.26-3.25 926.26-6.15L926.26-6.15 926.26-21.75 923.76-21.75 923.76-26.3 926.26-26.3 927.16-33.65 931.61-33.65 931.61-26.3 935.31-26.3 935.31-21.75 931.61-21.75 931.61-6.2Q931.61-3.95 933.81-3.95L933.81-3.95 935.31-3.95 935.31-0.05Q934.66 0.2 933.71 0.38 932.76 0.55 931.96 0.55L931.96 0.55ZM955.95 0L955.95-26.3 960.3-26.3 960.85-23.1 961.15-23.1Q962.25-24.85 963.9-25.88 965.55-26.9 967.7-26.9L967.7-26.9Q974.55-26.9 974.55-18.6L974.55-18.6 974.55 0 969.2 0 969.2-17.45Q969.2-19.95 968.3-21 967.4-22.05 965.65-22.05L965.65-22.05Q963.8-22.05 962.55-20.4 961.3-18.75 961.3-16.15L961.3-16.15 961.3 0 955.95 0ZM1006.3 0.6Q1001.25 0.6 998.7-2.75 996.15-6.1 996.15-13.15L996.15-13.15Q996.15-26.9 1006.15-26.9L1006.15-26.9Q1010.8-26.9 1013.1-23.7 1015.4-20.5 1015.4-13.65L1015.4-13.65 1015.4-11.75 1001.7-11.75Q1001.75-7.75 1002.85-5.8 1003.95-3.85 1006.35-3.85L1006.35-3.85Q1008.05-3.85 1009.08-5.28 1010.1-6.7 1010.1-9.2L1010.1-9.2 1015.4-9.2Q1015.4-4.45 1012.9-1.93 1010.4 0.6 1006.3 0.6L1006.3 0.6ZM1001.75-15.85L1009.75-15.85Q1009.75-19.05 1008.85-20.75 1007.95-22.45 1006.15-22.45L1006.15-22.45Q1004.05-22.45 1003-20.8 1001.95-19.15 1001.75-15.85L1001.75-15.85ZM1037.05 0L1037.05-26.3 1041.4-26.3 1042.05-22.6 1042.35-22.6Q1043.7-26.9 1046.85-26.9L1046.85-26.9Q1048.2-26.9 1049.15-26.5L1049.15-26.5 1049.15-21.25 1047.3-21.25Q1045.1-21.25 1043.75-19.83 1042.4-18.4 1042.4-15.15L1042.4-15.15 1042.4 0 1037.05 0ZM1066.69 0L1066.69-6.35 1072.94-6.35 1072.94 0 1066.69 0Z" opacity="1" transform="matrix(1,0,0,1,0,0)" fill="#0a1627" class="undefined-text-1" data-fill-palette-color="quaternary" id="text-1"></path></svg></g></svg></g></svg></g></svg></g><g></g></svg></g><defs></defs></svg><rect width="356.12052" height="80.90334945511611" fill="none" stroke="none" visibility="hidden"></rect></g></svg></g></svg>